<mxfile host="65bd71144e">
    <diagram id="ZFDfOLWLp87yV6TWwFRO" name="Page-1">
        <mxGraphModel dx="1538" dy="945" grid="1" gridSize="10" guides="1" tooltips="1" connect="1" arrows="1" fold="1" page="1" pageScale="1" pageWidth="850" pageHeight="1100" math="0" shadow="0">
            <root>
                <mxCell id="0"/>
                <mxCell id="1" parent="0"/>
                <mxCell id="2" value="" style="rounded=0;whiteSpace=wrap;html=1;" vertex="1" parent="1">
                    <mxGeometry x="10" y="10" width="830" height="170" as="geometry"/>
                </mxCell>
                <mxCell id="3" value="&lt;font style=&quot;font-size: 21px;&quot;&gt;Navbar&lt;/font&gt;" style="rounded=0;whiteSpace=wrap;html=1;" vertex="1" parent="1">
                    <mxGeometry x="10" y="190" width="120" height="60" as="geometry"/>
                </mxCell>
                <mxCell id="6" value="&lt;font style=&quot;font-size: 21px;&quot;&gt;Navbar&lt;/font&gt;" style="rounded=0;whiteSpace=wrap;html=1;" vertex="1" parent="1">
                    <mxGeometry x="140" y="190" width="120" height="60" as="geometry"/>
                </mxCell>
                <mxCell id="7" value="&lt;font style=&quot;font-size: 21px;&quot;&gt;Navbar&lt;/font&gt;" style="rounded=0;whiteSpace=wrap;html=1;" vertex="1" parent="1">
                    <mxGeometry x="270" y="190" width="120" height="60" as="geometry"/>
                </mxCell>
                <mxCell id="8" value="TEXT_1" style="rounded=0;whiteSpace=wrap;html=1;fontSize=21;" vertex="1" parent="1">
                    <mxGeometry x="10" y="260" width="390" height="460" as="geometry"/>
                </mxCell>
                <mxCell id="9" value="IMG1" style="rounded=0;whiteSpace=wrap;html=1;fontSize=21;" vertex="1" parent="1">
                    <mxGeometry x="420" y="260" width="200" height="200" as="geometry"/>
                </mxCell>
                <mxCell id="10" value="IMG2" style="rounded=0;whiteSpace=wrap;html=1;fontSize=21;" vertex="1" parent="1">
                    <mxGeometry x="640" y="260" width="200" height="200" as="geometry"/>
                </mxCell>
                <mxCell id="11" value="TEXT_2" style="rounded=0;whiteSpace=wrap;html=1;fontSize=21;" vertex="1" parent="1">
                    <mxGeometry x="420" y="470" width="420" height="250" as="geometry"/>
                </mxCell>
                <mxCell id="12" value="VID" style="rounded=0;whiteSpace=wrap;html=1;fontSize=21;" vertex="1" parent="1">
                    <mxGeometry x="10" y="730" width="830" height="340" as="geometry"/>
                </mxCell>
                <mxCell id="13" value="TEXT_3" style="rounded=0;whiteSpace=wrap;html=1;fontSize=21;" vertex="1" parent="1">
                    <mxGeometry x="10" y="1080" width="400" height="200" as="geometry"/>
                </mxCell>
                <mxCell id="14" value="TEXT_4" style="rounded=0;whiteSpace=wrap;html=1;fontSize=21;" vertex="1" parent="1">
                    <mxGeometry x="430" y="1080" width="410" height="200" as="geometry"/>
                </mxCell>
                <mxCell id="15" value="FOOTER" style="rounded=0;whiteSpace=wrap;html=1;fontSize=21;" vertex="1" parent="1">
                    <mxGeometry x="10" y="1300" width="830" height="80" as="geometry"/>
                </mxCell>
            </root>
        </mxGraphModel>
    </diagram>
</mxfile>